<svg width="106" height="106" viewBox="0 0 106 106" fill="none" xmlns="http://www.w3.org/2000/svg">
<g filter="url(#filter0_d_1_621)">
<rect x="21" y="13" width="64" height="64" rx="13" fill="#9848FF"/>
</g>
<path d="M39.5 54.75V34.5C39.5 32.0147 41.5147 30 44 30H65C65.8284 30 66.5 30.6716 66.5 31.5V58.5C66.5 59.3284 65.8284 60 65 60H44.75C41.8505 60 39.5 57.6495 39.5 54.75ZM63.5 57V52.5H44.75C43.5074 52.5 42.5 53.5074 42.5 54.75C42.5 55.9926 43.5074 57 44.75 57H63.5ZM42.5 50.0052C43.1819 49.6812 43.9448 49.5 44.75 49.5H63.5V33H44C43.1716 33 42.5 33.6716 42.5 34.5V50.0052Z" fill="white"/>
<defs>
<filter id="filter0_d_1_621" x="0" y="0" width="106" height="106" filterUnits="userSpaceOnUse" color-interpolation-filters="sRGB">
<feFlood flood-opacity="0" result="BackgroundImageFix"/>
<feColorMatrix in="SourceAlpha" type="matrix" values="0 0 0 0 0 0 0 0 0 0 0 0 0 0 0 0 0 0 127 0" result="hardAlpha"/>
<feOffset dy="8"/>
<feGaussianBlur stdDeviation="10.5"/>
<feComposite in2="hardAlpha" operator="out"/>
<feColorMatrix type="matrix" values="0 0 0 0 0.596078 0 0 0 0 0.282353 0 0 0 0 1 0 0 0 0.25 0"/>
<feBlend mode="normal" in2="BackgroundImageFix" result="effect1_dropShadow_1_621"/>
<feBlend mode="normal" in="SourceGraphic" in2="effect1_dropShadow_1_621" result="shape"/>
</filter>
</defs>
</svg>
