<svg width="112" height="19" viewBox="0 0 112 19" fill="none" xmlns="http://www.w3.org/2000/svg">
<path d="M4.126 6.07V9.194H9.164V12.098H4.126V15.486H9.824V18.5H0.364V3.056H9.824V6.07H4.126ZM11.5183 12.34C11.5183 11.0787 11.753 9.97133 12.2223 9.018C12.7063 8.06467 13.359 7.33133 14.1803 6.818C15.0017 6.30467 15.9183 6.048 16.9303 6.048C17.737 6.048 18.4703 6.21667 19.1303 6.554C19.805 6.89133 20.333 7.346 20.7143 7.918V2.22H24.4763V18.5H20.7143V16.74C20.3623 17.3267 19.8563 17.796 19.1963 18.148C18.551 18.5 17.7957 18.676 16.9303 18.676C15.9183 18.676 15.0017 18.4193 14.1803 17.906C13.359 17.378 12.7063 16.6373 12.2223 15.684C11.753 14.716 11.5183 13.6013 11.5183 12.34ZM20.7143 12.362C20.7143 11.4233 20.4503 10.6827 19.9223 10.14C19.409 9.59733 18.7783 9.326 18.0303 9.326C17.2823 9.326 16.6443 9.59733 16.1163 10.14C15.603 10.668 15.3463 11.4013 15.3463 12.34C15.3463 13.2787 15.603 14.0267 16.1163 14.584C16.6443 15.1267 17.2823 15.398 18.0303 15.398C18.7783 15.398 19.409 15.1267 19.9223 14.584C20.4503 14.0413 20.7143 13.3007 20.7143 12.362ZM39.32 6.224V18.5H35.558V16.828C35.1767 17.3707 34.656 17.8107 33.996 18.148C33.3507 18.4707 32.632 18.632 31.84 18.632C30.9013 18.632 30.0727 18.4267 29.354 18.016C28.6353 17.5907 28.078 16.982 27.682 16.19C27.286 15.398 27.088 14.4667 27.088 13.396V6.224H30.828V12.89C30.828 13.7113 31.0407 14.3493 31.466 14.804C31.8913 15.2587 32.4633 15.486 33.182 15.486C33.9153 15.486 34.4947 15.2587 34.92 14.804C35.3453 14.3493 35.558 13.7113 35.558 12.89V6.224H39.32Z" fill="#525FE1"/>
<path d="M41.2742 12.362C41.2742 11.086 41.5309 9.97133 42.0442 9.018C42.5722 8.06467 43.2982 7.33133 44.2222 6.818C45.1609 6.30467 46.2315 6.048 47.4342 6.048C48.9742 6.048 50.2575 6.45133 51.2842 7.258C52.3255 8.06467 53.0075 9.20133 53.3302 10.668H49.3262C48.9889 9.72933 48.3362 9.26 47.3682 9.26C46.6789 9.26 46.1289 9.53133 45.7182 10.074C45.3075 10.602 45.1022 11.3647 45.1022 12.362C45.1022 13.3593 45.3075 14.1293 45.7182 14.672C46.1289 15.2 46.6789 15.464 47.3682 15.464C48.3362 15.464 48.9889 14.9947 49.3262 14.056H53.3302C53.0075 15.4933 52.3255 16.6227 51.2842 17.444C50.2429 18.2653 48.9595 18.676 47.4342 18.676C46.2315 18.676 45.1609 18.4193 44.2222 17.906C43.2982 17.3927 42.5722 16.6593 42.0442 15.706C41.5309 14.7527 41.2742 13.638 41.2742 12.362ZM54.5945 12.34C54.5945 11.0787 54.8292 9.97133 55.2985 9.018C55.7825 8.06467 56.4352 7.33133 57.2565 6.818C58.0778 6.30467 58.9945 6.048 60.0065 6.048C60.8718 6.048 61.6272 6.224 62.2725 6.576C62.9325 6.928 63.4385 7.39 63.7905 7.962V6.224H67.5525V18.5H63.7905V16.762C63.4238 17.334 62.9105 17.796 62.2505 18.148C61.6052 18.5 60.8498 18.676 59.9845 18.676C58.9872 18.676 58.0778 18.4193 57.2565 17.906C56.4352 17.378 55.7825 16.6373 55.2985 15.684C54.8292 14.716 54.5945 13.6013 54.5945 12.34ZM63.7905 12.362C63.7905 11.4233 63.5265 10.6827 62.9985 10.14C62.4852 9.59733 61.8545 9.326 61.1065 9.326C60.3585 9.326 59.7205 9.59733 59.1925 10.14C58.6792 10.668 58.4225 11.4013 58.4225 12.34C58.4225 13.2787 58.6792 14.0267 59.1925 14.584C59.7205 15.1267 60.3585 15.398 61.1065 15.398C61.8545 15.398 62.4852 15.1267 62.9985 14.584C63.5265 14.0413 63.7905 13.3007 63.7905 12.362ZM77.1162 15.31V18.5H75.2022C73.8382 18.5 72.7748 18.17 72.0122 17.51C71.2495 16.8353 70.8682 15.7427 70.8682 14.232V9.348H69.3722V6.224H70.8682V3.232H74.6302V6.224H77.0942V9.348H74.6302V14.276C74.6302 14.6427 74.7182 14.9067 74.8942 15.068C75.0702 15.2293 75.3635 15.31 75.7742 15.31H77.1162ZM81.1037 4.948C80.4437 4.948 79.901 4.75733 79.4757 4.376C79.065 3.98 78.8597 3.496 78.8597 2.924C78.8597 2.33733 79.065 1.85333 79.4757 1.472C79.901 1.076 80.4437 0.877999 81.1037 0.877999C81.749 0.877999 82.277 1.076 82.6877 1.472C83.113 1.85333 83.3257 2.33733 83.3257 2.924C83.3257 3.496 83.113 3.98 82.6877 4.376C82.277 4.75733 81.749 4.948 81.1037 4.948ZM82.9737 6.224V18.5H79.2117V6.224H82.9737ZM91.2879 18.676C90.0853 18.676 88.9999 18.4193 88.0319 17.906C87.0786 17.3927 86.3233 16.6593 85.7659 15.706C85.2233 14.7527 84.9519 13.638 84.9519 12.362C84.9519 11.1007 85.2306 9.99333 85.7879 9.04C86.3453 8.072 87.1079 7.33133 88.0759 6.818C89.0439 6.30467 90.1293 6.048 91.3319 6.048C92.5346 6.048 93.6199 6.30467 94.5879 6.818C95.5559 7.33133 96.3186 8.072 96.8759 9.04C97.4333 9.99333 97.7119 11.1007 97.7119 12.362C97.7119 13.6233 97.4259 14.738 96.8539 15.706C96.2966 16.6593 95.5266 17.3927 94.5439 17.906C93.5759 18.4193 92.4906 18.676 91.2879 18.676ZM91.2879 15.42C92.0066 15.42 92.6153 15.156 93.1139 14.628C93.6273 14.1 93.8839 13.3447 93.8839 12.362C93.8839 11.3793 93.6346 10.624 93.1359 10.096C92.6519 9.568 92.0506 9.304 91.3319 9.304C90.5986 9.304 89.9899 9.568 89.5059 10.096C89.0219 10.6093 88.7799 11.3647 88.7799 12.362C88.7799 13.3447 89.0146 14.1 89.4839 14.628C89.9679 15.156 90.5693 15.42 91.2879 15.42ZM107.188 6.092C108.625 6.092 109.769 6.56133 110.62 7.5C111.485 8.424 111.918 9.7 111.918 11.328V18.5H108.178V11.834C108.178 11.0127 107.965 10.3747 107.54 9.92C107.114 9.46533 106.542 9.238 105.824 9.238C105.105 9.238 104.533 9.46533 104.108 9.92C103.682 10.3747 103.47 11.0127 103.47 11.834V18.5H99.7078V6.224H103.47V7.852C103.851 7.30933 104.364 6.884 105.01 6.576C105.655 6.25333 106.381 6.092 107.188 6.092Z" fill="#1C1C1C"/>
</svg>
