<svg width="106" height="106" viewBox="0 0 106 106" fill="none" xmlns="http://www.w3.org/2000/svg">
<g filter="url(#filter0_d_1_627)">
<rect x="21" y="13" width="64" height="64" rx="13" fill="#4D93DF"/>
</g>
<path d="M66.497 31.5V34.5C66.497 48.9411 58.4382 55.5 48.4971 55.5L42.8612 55.4999C42.6179 56.868 42.4971 58.3605 42.4971 60H39.4971C39.4971 57.9559 39.6706 56.0996 40.0157 54.4023C39.6699 52.4611 39.4971 49.8264 39.4971 46.5C39.4971 38.2157 46.2128 31.5 54.497 31.5C57.497 31.5 60.497 33 66.497 31.5ZM54.497 34.5C47.8697 34.5 42.4971 39.8726 42.4971 46.5C42.4971 47.0436 42.5019 47.5667 42.5114 48.0689C44.393 45.1026 47.1485 42.7572 50.7528 40.6976L52.2413 43.3023C47.9589 45.7494 45.1183 48.5302 43.6599 52.4997L48.4971 52.5C57.5198 52.5 63.3038 46.5403 63.4923 35.0815C61.4343 35.2817 59.5221 35.154 57.1631 34.8001C55.4364 34.5411 55.0982 34.5 54.497 34.5Z" fill="white"/>
<defs>
<filter id="filter0_d_1_627" x="0" y="0" width="106" height="106" filterUnits="userSpaceOnUse" color-interpolation-filters="sRGB">
<feFlood flood-opacity="0" result="BackgroundImageFix"/>
<feColorMatrix in="SourceAlpha" type="matrix" values="0 0 0 0 0 0 0 0 0 0 0 0 0 0 0 0 0 0 127 0" result="hardAlpha"/>
<feOffset dy="8"/>
<feGaussianBlur stdDeviation="10.5"/>
<feComposite in2="hardAlpha" operator="out"/>
<feColorMatrix type="matrix" values="0 0 0 0 0.301961 0 0 0 0 0.576471 0 0 0 0 0.87451 0 0 0 0.25 0"/>
<feBlend mode="normal" in2="BackgroundImageFix" result="effect1_dropShadow_1_627"/>
<feBlend mode="normal" in="SourceGraphic" in2="effect1_dropShadow_1_627" result="shape"/>
</filter>
</defs>
</svg>
