<svg width="106" height="106" viewBox="0 0 106 106" fill="none" xmlns="http://www.w3.org/2000/svg">
<g filter="url(#filter0_d_1_633)">
<rect x="21" y="13" width="64" height="64" rx="13" fill="#F66742"/>
</g>
<path d="M53 60C44.7157 60 38 53.2842 38 45C38 36.7157 44.7157 30 53 30C61.2842 30 68 36.7157 68 45C68 53.2842 61.2842 60 53 60ZM53 57C59.6275 57 65 51.6275 65 45C65 38.3726 59.6275 33 53 33C46.3726 33 41 38.3726 41 45C41 51.6275 46.3726 57 53 57ZM54.5 45H60.5V48H51.5V37.5H54.5V45Z" fill="white"/>
<defs>
<filter id="filter0_d_1_633" x="0" y="0" width="106" height="106" filterUnits="userSpaceOnUse" color-interpolation-filters="sRGB">
<feFlood flood-opacity="0" result="BackgroundImageFix"/>
<feColorMatrix in="SourceAlpha" type="matrix" values="0 0 0 0 0 0 0 0 0 0 0 0 0 0 0 0 0 0 127 0" result="hardAlpha"/>
<feOffset dy="8"/>
<feGaussianBlur stdDeviation="10.5"/>
<feComposite in2="hardAlpha" operator="out"/>
<feColorMatrix type="matrix" values="0 0 0 0 0.964706 0 0 0 0 0.403922 0 0 0 0 0.258824 0 0 0 0.25 0"/>
<feBlend mode="normal" in2="BackgroundImageFix" result="effect1_dropShadow_1_633"/>
<feBlend mode="normal" in="SourceGraphic" in2="effect1_dropShadow_1_633" result="shape"/>
</filter>
</defs>
</svg>
